<?xml version="1.0" encoding="UTF-8"?><svg id="Layer_2" xmlns="http://www.w3.org/2000/svg" viewBox="0 0 411.74 1734"><defs><style>.cls-1{fill:#ed1c24;}.cls-2{fill:#fbb03b;}.cls-3{fill:#fcee21;}.cls-4{fill:#999;}.cls-5{fill:#666;}.cls-6{fill:#ccc;}</style></defs><g id="_ÎÓÈ_1"><g><path class="cls-6" d="M205.87,1734c-113.52,0-205.87-92.35-205.87-205.87,0-36.52,9.7-72.41,28.05-103.79,14.45-24.71,33.97-46.18,57.07-62.95V120.75C85.12,54.17,139.29,0,205.87,0c32.26,0,62.58,12.56,85.38,35.36,22.81,22.81,35.36,53.13,35.36,85.38V1361.39c23.1,16.76,42.62,38.24,57.07,62.95,18.35,31.38,28.05,67.27,28.05,103.79,0,113.52-92.35,205.87-205.87,205.87Z"/><rect class="cls-2" x="118.68" y="1012.27" width="174.39" height="244.68"/><rect class="cls-3" x="118.68" y="767.59" width="174.39" height="244.68"/><rect class="cls-4" x="118.68" y="522.92" width="174.39" height="244.67"/><rect class="cls-5" x="118.68" y="278.23" width="174.39" height="244.68"/><path class="cls-4" d="M293.07,120.75v157.49H118.68V120.75c0-48.16,39.04-87.2,87.2-87.2,24.08,0,45.88,9.75,61.66,25.54,15.78,15.78,25.54,37.57,25.54,61.66Z"/><path class="cls-1" d="M293.07,1379.48v-122.53H118.68v122.53c-50.93,29.94-85.12,85.3-85.12,148.65,0,95.17,77.15,172.32,172.32,172.32s172.32-77.15,172.32-172.32c0-63.35-34.19-118.71-85.12-148.65Z"/></g></g></svg>